<?xml version="1.0" encoding="UTF-8"?>
<svg id="Layer_2" xmlns="http://www.w3.org/2000/svg" viewBox="0 0 20 20">
  <defs>
    <style>
      .cls-1 {
        fill: #231f20;
      }
    </style>
  </defs>
  <g id="_로고" data-name="로고">
    <g id="_선물" data-name="선물">
      <path class="cls-1" d="M18,6H2c-1.1,0-2,.9-2,2v2c0,.74.4,1.38,1,1.72v6.28c0,1.1.9,2,2,2h14c1.1,0,2-.9,2-2v-6.28c.6-.35,1-.98,1-1.72v-2c0-1.1-.9-2-2-2ZM7,19H3c-.55,0-1-.45-1-1v-6h5v7ZM7,11H2c-.55,0-1-.45-1-1v-2c0-.55.45-1,1-1h5v4ZM12,19h-4v-7h4v7ZM12,11h-4v-4h4v4ZM18,18c0,.55-.45,1-1,1h-4v-7h5v6ZM19,10c0,.55-.45,1-1,1h-5v-4h5c.55,0,1,.45,1,1v2Z"/>
      <path class="cls-1" d="M15.5,5c2.49,0,3.5-1.12,3.5-2.5s-1.01-2.5-3.5-2.5-5.5,2.12-5.5,3.5,3.01,1.5,5.5,1.5ZM15.5,1c1.14,0,2.5.26,2.5,1.5s-1.36,1.5-2.5,1.5c-3.43,0-4.28-.36-4.49-.55.14-.69,2.4-2.45,4.49-2.45Z"/>
      <path class="cls-1" d="M4.5,5c2.49,0,5.5-.12,5.5-1.5S6.99,0,4.5,0,1,1.12,1,2.5s1.01,2.5,3.5,2.5ZM4.5,1c2.1,0,4.35,1.77,4.49,2.45-.21.19-1.07.55-4.49.55-1.14,0-2.5-.26-2.5-1.5s1.36-1.5,2.5-1.5Z"/>
    </g>
  </g>
</svg>