<?xml version="1.0" encoding="UTF-8"?>
<svg id="Layer_2" xmlns="http://www.w3.org/2000/svg" viewBox="0 0 20 20">
  <defs>
    <style>
      .cls-1 {
        fill: #231f20;
      }
    </style>
  </defs>
  <g id="_로고" data-name="로고">
    <g id="_장바구니" data-name="장바구니">
      <path class="cls-1" d="M18.44,4l-.11-1-.14-1.22c-.11-1.01-.97-1.78-1.99-1.78H3.79c-1.02,0-1.88.77-1.99,1.78l-.14,1.22-.11,1-1.56,14c0,1.1.9,2,2,2h16c1.1,0,2-.9,2-2l-1.56-14ZM2.8,1.89c.06-.51.48-.89.99-.89h12.42c.51,0,.94.38.99.89l.12,1.11H2.67l.12-1.11ZM18,19H2c-.54,0-.97-.42-1-.95l1.56-14.05h14.88l1.56,14.05c-.02.53-.46.95-1,.95Z"/>
      <path class="cls-1" d="M13.5,6c-.28,0-.5.22-.5.5v3.5c0,1.65-1.35,3-3,3s-3-1.35-3-3v-3.5c0-.28-.22-.5-.5-.5s-.5.22-.5.5v3.5c0,2.21,1.79,4,4,4s4-1.79,4-4v-3.5c0-.28-.22-.5-.5-.5Z"/>
    </g>
  </g>
</svg>