<?xml version="1.0" encoding="UTF-8"?>
<svg id="Layer_2" xmlns="http://www.w3.org/2000/svg" viewBox="0 0 1224.5 610.5">
  <defs>
    <style>
      .cls-1 {
        letter-spacing: -.01em;
      }

      .cls-1, .cls-2, .cls-3, .cls-4, .cls-5 {
        font-family: Paperlogy-5Medium, Paperlogy;
        font-weight: 500;
      }

      .cls-2 {
        font-size: 20px;
      }

      .cls-2, .cls-6, .cls-7, .cls-8, .cls-9 {
        fill: #010101;
      }

      .cls-6 {
        font-size: 11.97px;
      }

      .cls-6, .cls-9 {
        font-family: Paperlogy-3Light, Paperlogy;
        font-weight: 300;
      }

      .cls-10 {
        fill: #fdf8ee;
      }

      .cls-10, .cls-11, .cls-12 {
        stroke: #ddd;
        stroke-miterlimit: 10;
      }

      .cls-13, .cls-12 {
        fill: #fff;
      }

      .cls-7, .cls-8, .cls-14 {
        font-size: 15px;
      }

      .cls-7, .cls-15 {
        font-family: Paperlogy-4Regular, Paperlogy;
      }

      .cls-16 {
        letter-spacing: -.02em;
      }

      .cls-11 {
        fill: none;
      }

      .cls-9 {
        font-size: 12px;
      }

      .cls-3 {
        letter-spacing: -.02em;
      }

      .cls-14, .cls-4 {
        fill: #231f20;
      }

      .cls-17 {
        fill: #999;
      }

      .cls-18 {
        fill: #fcf8ee;
      }

      .cls-4 {
        font-size: 14.91px;
      }

      .cls-19 {
        letter-spacing: 0em;
      }
    </style>
  </defs>
  <g id="Layer_3">
    <rect class="cls-10" x=".5" y="130" width="145" height="60"/>
    <rect class="cls-12" x=".53" y="190" width="145" height="60"/>
    <rect class="cls-12" x=".53" y="250" width="145" height="60"/>
    <rect class="cls-12" x=".53" y="310" width="145" height="60"/>
    <rect class="cls-12" x=".5" y="370" width="145" height="60"/>
    <rect class="cls-12" x=".5" y="430" width="145" height="60"/>
    <rect class="cls-12" x=".5" y="490" width="145" height="60"/>
    <rect class="cls-12" x=".5" y="550" width="145" height="60"/>
    <rect class="cls-18" x="560.5" y="130" width="664" height="480"/>
    <rect class="cls-13" x="600.5" y="250" width="584" height="310"/>
    <text class="cls-2" transform="translate(.5 17.87)"><tspan x="0" y="0">문의 사항</tspan></text>
    <text class="cls-9" transform="translate(34.72 403.9)"><tspan x="0" y="0">고객관리 지원팀</tspan></text>
    <text class="cls-9" transform="translate(50.56 463.9)"><tspan x="0" y="0">나의 오더</tspan></text>
    <text class="cls-9" transform="translate(47.5 523.9)"><tspan x="0" y="0">교환&amp;환불</tspan></text>
    <text class="cls-9" transform="translate(37.68 163.53)"><tspan x="0" y="0">자주 묻는 질문</tspan></text>
    <text class="cls-9" transform="translate(45.3 223.9)"><tspan x="0" y="0">나의 프로필</tspan></text>
    <text class="cls-9" transform="translate(51.9 283.9)"><tspan x="0" y="0">배송관련</tspan></text>
    <text class="cls-9" transform="translate(34.74 343.9)"><tspan x="0" y="0">온라인 쇼핑하기</tspan></text>
    <text class="cls-9" transform="translate(45.28 576.7)"><tspan x="0" y="0">이용약관 및</tspan><tspan x="6.6" y="14.4">쇼핑하기</tspan></text>
    <text class="cls-8" transform="translate(553.53 13.4)"><tspan class="cls-5"><tspan x="0" y="0">자주 묻는 질문</tspan></tspan><tspan class="cls-15"><tspan x="0" y="22.5">주문 취소나 주소 변경 등 신속한 처리가 필요한 사항은 조 말론 런던 온라인 부티크</tspan></tspan><tspan class="cls-15"><tspan x="0" y="45">고객관리지원팀 (1644</tspan><tspan class="cls-16" x="140.36" y="45">-</tspan><tspan class="cls-19" x="146.42" y="45">3753)로 문의해주세요.</tspan></tspan></text>
    <text class="cls-14" transform="translate(620.5 283.64)"><tspan class="cls-15"><tspan x="0" y="0">온라인으로 고객님의 주문 상태를 확인하실 수 있습니다. </tspan></tspan><tspan class="cls-15" x="0" y="27">또는 조 말론 런던 고객관리지원팀 (</tspan><tspan class="cls-5" x="205.96" y="27">1644</tspan><tspan class="cls-3" x="245.96" y="27">-</tspan><tspan class="cls-5" x="252.03" y="27">3753</tspan><tspan class="cls-15" x="292.03" y="27">) 로 전화 문의, </tspan><tspan class="cls-5" x="0" y="54">consumercare-kr@jo</tspan><tspan class="cls-1" x="164.56" y="54">m</tspan><tspan class="cls-3" x="180.61" y="54">a</tspan><tspan class="cls-5" x="189.41" y="54">lon</tspan><tspan class="cls-3" x="213.43" y="54">e</tspan><tspan class="cls-5" x="222.43" y="54">.com</tspan><tspan class="cls-15" x="260.83" y="54" xml:space="preserve"> 으로 이메일 문의도 가능합니다. </tspan><tspan class="cls-15"><tspan x="0" y="81">문의 시 고객님의 주문 확인 번호를 함께 알려주세요.</tspan></tspan></text>
    <text class="cls-4" transform="translate(621.03 193.32)"><tspan x="0" y="0">나의 주문 내역은 어디서 확인하나요?</tspan></text>
    <text class="cls-9" transform="translate(218.5 242.14)"><tspan x="0" y="0">해외 주문도 가능한가요?</tspan></text>
    <polyline class="cls-11" points="492.5 230 496.5 236 492.5 242"/>
    <line class="cls-11" x1="208.5" y1="258" x2="496.5" y2="258"/>
    <text class="cls-6" transform="translate(218.5 198.14) scale(.97 1)"><tspan x="0" y="0">나의 주문 내역은 어디서 확인하나요?</tspan></text>
    <text class="cls-7" transform="translate(218.5 143.4)"><tspan x="0" y="0">자주 묻는 질문과 답변</tspan></text>
    <polyline class="cls-11" points="492.5 186 496.5 192 492.5 198"/>
    <line class="cls-11" x1="208.5" y1="214" x2="496.5" y2="214"/>
    <line class="cls-11" x1="208.5" y1="170" x2="496.5" y2="170"/>
    <text class="cls-9" transform="translate(218.5 286.14)"><tspan x="0" y="0">결제 시 신용카드를 사용해도 안전한가요?</tspan></text>
    <polyline class="cls-11" points="492.5 274 496.5 280 492.5 286"/>
    <line class="cls-11" x1="208.5" y1="302" x2="496.5" y2="302"/>
    <text class="cls-9" transform="translate(218.5 330.14)"><tspan x="0" y="0">뉴스레터 수신 변경은 어떻게 하나요?</tspan></text>
    <polyline class="cls-11" points="492.5 318 496.5 324 492.5 330"/>
    <line class="cls-11" x1="208.5" y1="346" x2="496.5" y2="346"/>
    <text class="cls-9" transform="translate(218.5 374.14)"><tspan x="0" y="0">조 말론 런던 샘플 제품은 어떻게 받을 수 있나요?</tspan></text>
    <polyline class="cls-11" points="492.5 362 496.5 368 492.5 374"/>
    <line class="cls-11" x1="208.5" y1="390" x2="496.5" y2="390"/>
    <text class="cls-9" transform="translate(218.5 418.14)"><tspan x="0" y="0">조 말론 런던에 제공한 정보를 다른 사람이 볼 수 있나요?</tspan></text>
    <polyline class="cls-11" points="492.5 406 496.5 412 492.5 418"/>
    <line class="cls-11" x1="208.5" y1="434" x2="496.5" y2="434"/>
    <text class="cls-9" transform="translate(218.5 462.14)"><tspan x="0" y="0">교환 및 환불 정책에 대해 알고 싶습니다.</tspan></text>
    <polyline class="cls-11" points="492.5 450 496.5 456 492.5 462"/>
    <line class="cls-11" x1="208.5" y1="478" x2="496.5" y2="478"/>
    <text class="cls-9" transform="translate(218.5 506.14)"><tspan x="0" y="0">조 말론 런던 제품은 어디서 구매할 수 있나요?</tspan></text>
    <polyline class="cls-11" points="492.5 494 496.5 500 492.5 506"/>
    <line class="cls-11" x1="208.5" y1="522" x2="496.5" y2="522"/>
    <text class="cls-9" transform="translate(218.5 550.14)"><tspan x="0" y="0">요청을 통해 샘플을 받아볼 수 있나요?</tspan></text>
    <polyline class="cls-11" points="492.5 538 496.5 544 492.5 550"/>
    <line class="cls-11" x1="208.5" y1="566" x2="496.5" y2="566"/>
    <text class="cls-9" transform="translate(218.5 594.14)"><tspan x="0" y="0">요청을 통해 샘플을 받아볼 수 있나요?</tspan></text>
    <polyline class="cls-11" points="492.5 582 496.5 588 492.5 594"/>
    <line class="cls-11" x1="208.5" y1="610" x2="496.5" y2="610"/>
    <rect class="cls-17" x="1211.5" y="133" width="10" height="237" rx="5" ry="5"/>
  </g>
</svg>